<svg width="214" height="214" viewBox="0 0 214 214" fill="none" xmlns="http://www.w3.org/2000/svg">
<rect x="2.5" y="2.5" width="209" height="209" rx="35.5" fill="#023D86"/>
<rect x="2.5" y="2.5" width="209" height="209" rx="35.5" stroke="white" stroke-width="5"/>
<path fill-rule="evenodd" clip-rule="evenodd" d="M42.08 105.96L24 87.51L24.22 87.28L42.08 68.86L61.75 48.47L68.1 42H74.66H86.13H93.79H101.15H106.2H111.65H119.45H127.17H136.16H139.83H145.5L151.49 48.13L171.42 68.37L190 87.27L190.21 87.5L171.41 106.81L151.48 127.34L139.82 139.36L136.15 143.14L127.16 152.41L119.44 160.29L111.64 168.34L107.43 172.64L106.19 171.42L101.14 166.24L93.78 158.77L86.12 150.94L74.65 139.2L61.74 126.06L42.08 105.96ZM178.88 84.91L171.42 77.67L165.53 71.9V84.91H171.42H178.88ZM149.5 118.08L151.49 116.07L171.42 96.17L176.21 91.43H171.42H163.51L151.49 114.24L149.5 118.08ZM139.83 83.6H147.49L139.83 76.69L136.16 73.39L129.51 67.38L134.13 83.6H136.16H139.83ZM136.16 119.06L127.17 128.09L124.78 130.42L119.45 144.53L115.45 155.12L119.45 150.78L127.17 142.43L136.16 132.67L138.78 129.78L139.83 127.32L148.17 107.04L139.83 115.36L136.16 119.06ZM129.51 56.3L136.16 51.67L138.78 49.82L136.16 50.06L127.17 50.88L124.78 51.13L127.17 53.74L129.51 56.3ZM133.46 62.8L136.16 65.12L139.83 68.34L151.49 78.53L158.86 84.92V66.07L151.49 58.22L145.5 51.77L139.83 56.97L136.16 60.37L133.46 62.8ZM127.17 83.6H128.79L127.17 79.45L124.09 71.91L119.45 77.4L114.11 83.61H119.45H127.17V83.6ZM126.12 120.68L127.18 119.63L136.17 110.22L139.84 106.39L151.5 94.18L153.52 92.07H151.5H139.84H136.17H135.49L127.18 117.58L126.12 120.68ZM110.82 92.07L111.66 96.14L117.49 123.29L119.46 117.4L127.18 94.99L128.15 92.07H127.18H119.46H111.66H110.82ZM106.49 105.96L106.2 107.28L101.15 129.88L99.81 135.87L101.15 140.55L106.2 158.23L106.49 159.26L111.65 138.12L112.54 134.55L111.65 130.46L106.49 105.96ZM101.16 75.16L106.21 80.44L106.76 81L111.66 75.76L119.46 67.27L124.79 61.51L119.46 55.99L114.12 50.47H111.66H106.21H101.16H98.74L93.8 56.25L88.76 62.18L93.8 67.47L101.16 75.16ZM95.82 123.54L101.16 98.54L102.5 92.34H101.16H93.8H86.14H85.14L86.14 95.26L93.8 117.7L95.82 123.54ZM93.8 83.89H99.18L93.8 77.65L89.16 72.19L86.13 79.69L84.44 83.9H86.13H93.8V83.89ZM83.81 56.57L86.14 53.97L88.47 51.37L86.14 51.17L74.67 50.11L74.46 50.09L74.67 50.22L83.81 56.57ZM86.14 142.7L93.8 151.05L97.85 155.4L93.8 144.8L88.46 130.69L86.13 128.33L74.66 116.84L65.11 107.26L74.46 130.01L74.67 130.2L86.14 142.7ZM79.12 83.89L83.8 67.62L74.66 75.88L65.8 83.89H74.66H79.12ZM74.67 67.57L79.81 63.08L74.67 58.35L67.8 52.03L61.76 58.46L54.45 66.35V85.17L61.76 78.77L74.67 67.57ZM59.78 92.34L61.75 94.42L74.66 107.87L86.13 119.9L87.11 120.92L86.13 117.86L77.77 92.33H74.66H61.75H59.78V92.34ZM49.74 91.68H42.09H37.04L42.09 96.65L61.76 116.34L63.8 118.33L61.76 114.54L49.74 91.68ZM47.76 85.17V72.18L42.08 77.74L34.42 85.17H42.08H47.76Z" fill="white"/>
</svg>
