<svg width="204" height="204" viewBox="0 0 204 204" fill="none" xmlns="http://www.w3.org/2000/svg">
<path d="M0 51.2C0 33.2783 0 24.3175 3.48779 17.4723C6.55574 11.4511 11.4511 6.55574 17.4723 3.48779C24.3175 0 33.2783 0 51.2 0H152.8C170.722 0 179.683 0 186.528 3.48779C192.549 6.55574 197.444 11.4511 200.512 17.4723C204 24.3175 204 33.2783 204 51.2V152.8C204 170.722 204 179.683 200.512 186.528C197.444 192.549 192.549 197.444 186.528 200.512C179.683 204 170.722 204 152.8 204H51.2C33.2783 204 24.3175 204 17.4723 200.512C11.4511 197.444 6.55574 192.549 3.48779 186.528C0 179.683 0 170.722 0 152.8V51.2Z" fill="#023D86"/>
<path fill-rule="evenodd" clip-rule="evenodd" d="M43.3167 79.8753L27 63.1805L27.1985 62.9724L43.3167 46.3047L61.0683 27.8545L66.7991 22H72.7193H83.0706H89.9836H96.6258H101.183H106.102H113.141H120.108H128.221H131.533H136.65L142.056 27.5468L160.043 45.8614L176.81 62.9634L177 63.1715L160.033 80.6445L142.047 99.2214L131.524 110.098L128.212 113.518L120.099 121.906L113.132 129.037L106.093 136.321L102.293 140.212L101.174 139.108L96.6167 134.421L89.9745 127.661L83.0616 120.576L72.7102 109.953L61.0593 98.0632L43.3167 79.8753ZM166.775 60.8279L160.043 54.2766L154.727 49.0555V60.8279H160.043H166.775ZM140.26 90.8423L142.056 89.0236L160.043 71.0167L164.365 66.7276H160.043H152.904L142.056 87.3677L140.26 90.8423ZM131.533 59.6425H138.446L131.533 53.3899L128.221 50.4038L122.22 44.9655L126.389 59.6425H128.221H131.533ZM128.221 91.7291L120.108 99.9001L117.951 102.008L113.141 114.776L109.531 124.359L113.141 120.432L120.108 112.876L128.221 104.044L130.586 101.429L131.533 99.2033L139.06 80.8526L131.533 88.3811L128.221 91.7291ZM122.22 34.9396L128.221 30.7501L130.586 29.0761L128.221 29.2932L120.108 30.0352L117.951 30.2614L120.108 32.6232L122.22 34.9396ZM125.785 40.8213L128.221 42.9205L131.533 45.8342L142.056 55.0548L148.707 60.8369V43.7802L142.056 36.677L136.65 30.8406L131.533 35.5459L128.221 38.6224L125.785 40.8213ZM120.108 59.6425H121.57L120.108 55.8873L117.328 49.0646L113.141 54.0323L108.322 59.6515H113.141H120.108V59.6425ZM119.161 93.195L120.117 92.2449L128.23 83.7301L131.542 80.2644L142.065 69.216L143.888 67.3067H142.065H131.542H128.23H127.617L120.117 90.3899L119.161 93.195ZM105.353 67.3067L106.111 70.9895L111.372 95.5567L113.15 90.227L120.117 69.9489L120.993 67.3067H120.117H113.15H106.111H105.353ZM101.445 79.8753L101.183 81.0698L96.6258 101.52L95.4165 106.94L96.6258 111.175L101.183 127.173L101.445 128.105L106.102 108.976L106.905 105.746L106.102 102.045L101.445 79.8753ZM96.6348 52.0054L101.192 56.7831L101.689 57.2898L106.111 52.5483L113.15 44.866L117.96 39.654L113.15 34.6591L108.331 29.6642H106.111H101.192H96.6348H94.4508L89.9926 34.8944L85.4441 40.2602L89.9926 45.047L96.6348 52.0054ZM91.8156 95.7829L96.6348 73.1612L97.8441 67.551H96.6348H89.9926H83.0797H82.1772L83.0797 70.1933L89.9926 90.4985L91.8156 95.7829ZM89.9926 59.9049H94.8479L89.9926 54.2585L85.8051 49.318L83.0706 56.1045L81.5455 59.914H83.0706H89.9926V59.9049ZM80.9769 35.1839L83.0797 32.8313L85.1824 30.4786L83.0797 30.2976L72.7283 29.3385L72.5388 29.3204L72.7283 29.438L80.9769 35.1839ZM83.0797 113.12L89.9926 120.676L93.6476 124.612L89.9926 115.02L85.1734 102.253L83.0706 100.117L72.7193 89.7203L64.1007 81.0517L72.5388 101.637L72.7283 101.809L83.0797 113.12ZM76.7443 59.9049L80.9679 45.1827L72.7193 52.6569L64.7234 59.9049H72.7193H76.7443ZM72.7283 45.1375L77.367 41.0746L72.7283 36.7946L66.5283 31.0758L61.0774 36.8941L54.4803 44.0335V61.0631L61.0774 55.272L72.7283 45.1375ZM59.2905 67.551L61.0683 69.4332L72.7193 81.6036L83.0706 92.4892L83.9551 93.4122L83.0706 90.6433L75.526 67.542H72.7193H61.0683H59.2905V67.551ZM50.2297 66.9538H43.3257H38.7682L43.3257 71.451L61.0774 89.2679L62.9184 91.0686L61.0774 87.6391L50.2297 66.9538ZM48.4427 61.0631V49.3089L43.3167 54.34L36.4038 61.0631H43.3167H48.4427Z" fill="white"/>
<path d="M6 156H198C198 169.046 198 175.57 195.869 180.715C193.027 187.576 187.576 193.027 180.715 195.869C175.57 198 169.046 198 156 198H48C34.9536 198 28.4305 198 23.2849 195.869C16.4241 193.027 10.9732 187.576 8.13137 180.715C6 175.57 6 169.046 6 156Z" fill="#FCB316"/>
<path d="M27 181.945V172.072H29.3643H35.4466H37.82V181.945H35.4557V174.031H29.3643V181.945H27Z" fill="#023D86"/>
<path d="M50.869 178.57C50.869 179.21 50.8148 179.734 50.6975 180.158C50.5802 180.573 50.3907 180.916 50.1199 181.178C49.8492 181.439 49.4883 181.629 49.028 181.755C48.5678 181.873 47.9902 181.936 47.3044 181.936H42.9728C42.305 181.936 41.7455 181.873 41.2853 181.746C40.825 181.62 40.446 181.421 40.1572 181.151C39.8685 180.88 39.6609 180.537 39.5256 180.113C39.3902 179.698 39.327 179.174 39.327 178.57V175.574C39.327 174.888 39.3902 174.328 39.5165 173.877C39.6519 173.435 39.8504 173.083 40.1392 172.812C40.4189 172.551 40.7889 172.361 41.2401 172.244C41.7004 172.126 42.2689 172.072 42.9728 172.072H47.3044C48.1527 172.072 48.8385 172.172 49.3529 172.379C49.8673 172.578 50.2463 172.939 50.499 173.444C50.7516 173.949 50.869 174.662 50.869 175.565V178.57ZM41.6823 178.335C41.6823 178.768 41.7455 179.102 41.8538 179.346C41.9621 179.58 42.1426 179.743 42.4043 179.842C42.657 179.941 43.036 179.986 43.5233 179.986H46.6547C47.169 179.986 47.5571 179.941 47.8188 179.842C48.0715 179.752 48.261 179.589 48.3512 179.355C48.4505 179.12 48.5046 178.777 48.5046 178.317V175.79C48.5046 175.312 48.4415 174.942 48.3241 174.689C48.2068 174.446 48.0173 174.265 47.7466 174.175C47.4759 174.085 47.0968 174.031 46.6095 174.031H43.5684C43.063 174.031 42.684 174.085 42.4223 174.184C42.1516 174.283 41.9711 174.455 41.8628 174.707C41.7545 174.96 41.6914 175.321 41.6823 175.808V178.335Z" fill="#023D86"/>
<path d="M55.4713 181.945C54.632 181.945 53.9733 181.845 53.495 181.647C53.0167 181.448 52.6648 181.151 52.4572 180.735C52.2497 180.32 52.1414 179.797 52.1414 179.147H54.5598C54.5598 179.391 54.6772 179.616 54.8937 179.806C55.1284 179.986 55.3991 180.086 55.724 180.086H59.6766C60.2 180.086 60.588 179.996 60.8407 179.824C61.0933 179.644 61.2107 179.364 61.2107 178.976C61.2107 178.723 61.1746 178.516 61.0933 178.344C61.0031 178.182 60.8497 178.055 60.6151 177.965C60.3714 177.875 60.0375 177.839 59.6134 177.839H55.2818V176.115H59.8841C60.6421 176.115 61.0212 175.736 61.0212 174.969C61.0212 174.283 60.6512 173.94 59.8841 173.94H55.9135C55.4442 173.94 55.1374 174.012 54.984 174.148C54.8306 174.292 54.7403 174.527 54.7133 174.861H52.3579C52.3579 174.22 52.4662 173.697 52.7009 173.291C52.9265 172.884 53.2874 172.578 53.7928 172.379C54.2891 172.181 54.9298 172.081 55.724 172.081H59.7307C60.606 172.081 61.3099 172.181 61.8333 172.361C62.3567 172.542 62.7448 172.848 62.9884 173.254C63.2321 173.661 63.3584 174.202 63.3855 174.87C63.3584 175.465 63.2321 175.917 63.0245 176.232C62.8079 176.548 62.4921 176.792 62.068 176.963C62.5553 177.135 62.9253 177.388 63.187 177.694C63.4396 178.001 63.575 178.425 63.575 178.958C63.575 179.653 63.4577 180.221 63.2231 180.663C62.9975 181.105 62.6365 181.43 62.1492 181.638C61.6619 181.845 61.0212 181.954 60.2451 181.954H55.4713V181.945Z" fill="#023D86"/>
<path d="M75.5501 181.945V174.04H75.2253L69.2964 181.945H65.2445V172.072H67.5998V179.986H67.9247L73.9438 172.072H77.9054V181.945H75.5501Z" fill="#023D86"/>
<path d="M79.7012 181.945V172.072H82.0475V175.763H83.4372L87.7418 172.072H91.2883L85.4677 176.702L91.5139 181.945H88.0396L83.4824 177.721H82.0475V181.945H79.7012Z" fill="#023D86"/>
<path d="M102.966 181.945V174.04H102.65L96.7118 181.945H92.669V172.072H95.0243V179.986H95.3492L101.359 172.072H105.33V181.945H102.966Z" fill="#023D86"/>
<path d="M115.067 181.945C114.237 181.945 113.578 181.845 113.1 181.647C112.612 181.448 112.27 181.151 112.062 180.735C111.854 180.32 111.746 179.797 111.746 179.147H114.165C114.165 179.391 114.282 179.616 114.508 179.806C114.733 179.986 115.013 180.086 115.329 180.086H119.281C119.805 180.086 120.193 179.996 120.445 179.824C120.689 179.644 120.815 179.364 120.815 178.976C120.815 178.723 120.77 178.516 120.689 178.344C120.608 178.182 120.445 178.055 120.211 177.965C119.967 177.875 119.633 177.839 119.209 177.839H114.878V176.115H119.48C120.238 176.115 120.617 175.736 120.617 174.969C120.617 174.283 120.238 173.94 119.48 173.94H115.509C115.04 173.94 114.733 174.012 114.58 174.148C114.417 174.292 114.327 174.527 114.3 174.861H111.945C111.945 174.22 112.062 173.697 112.288 173.291C112.522 172.884 112.883 172.578 113.379 172.379C113.876 172.181 114.517 172.081 115.311 172.081H119.317C120.202 172.081 120.897 172.181 121.429 172.361C121.952 172.542 122.341 172.848 122.584 173.254C122.828 173.661 122.963 174.202 122.981 174.87C122.954 175.465 122.837 175.917 122.62 176.232C122.404 176.548 122.079 176.792 121.664 176.963C122.142 177.135 122.521 177.388 122.783 177.694C123.044 178.001 123.171 178.425 123.171 178.958C123.171 179.653 123.053 180.221 122.828 180.663C122.593 181.105 122.241 181.43 121.754 181.638C121.267 181.845 120.626 181.954 119.85 181.954H115.067V181.945Z" fill="#023D86"/>
<path d="M136.833 181.945H134.469V174.193H133.747L131.121 176.259L129.867 174.446L132.926 172.072H136.833V181.945Z" fill="#023D86"/>
<path d="M148.276 180.131C148.754 180.131 149.142 180.086 149.413 180.013C149.684 179.932 149.882 179.806 150 179.607C150.126 179.418 150.189 179.147 150.189 178.795V177.505C150.036 177.676 149.873 177.83 149.702 177.956C149.521 178.082 149.278 178.182 148.944 178.272C148.619 178.353 148.186 178.398 147.644 178.398H145.821C144.91 178.398 144.152 178.317 143.574 178.145C142.988 177.974 142.546 177.694 142.239 177.279C141.941 176.864 141.788 176.296 141.788 175.574C141.788 174.834 141.842 174.238 141.95 173.787C142.058 173.336 142.239 172.975 142.51 172.713C142.771 172.451 143.141 172.271 143.602 172.162C144.071 172.054 144.684 172 145.442 172H148.899C149.702 172 150.37 172.099 150.92 172.298C151.462 172.487 151.877 172.785 152.147 173.191C152.418 173.597 152.554 174.112 152.554 174.734V179.129C152.554 180.14 152.283 180.88 151.723 181.331C151.173 181.791 150.234 182.017 148.899 182.017H145.442C144.594 182.017 143.908 181.918 143.385 181.719C142.862 181.511 142.483 181.205 142.23 180.79C141.986 180.383 141.869 179.86 141.869 179.21H144.089C144.089 179.499 144.152 179.707 144.278 179.842C144.405 179.977 144.585 180.059 144.811 180.095C145.036 180.131 145.37 180.158 145.821 180.158H148.276V180.131ZM144.152 175.077C144.152 175.592 144.269 175.971 144.504 176.187C144.739 176.413 145.217 176.512 145.93 176.512H148.42C148.89 176.512 149.251 176.458 149.503 176.35C149.774 176.241 149.946 176.079 150.045 175.88C150.144 175.673 150.189 175.402 150.189 175.077C150.18 174.635 150.054 174.31 149.801 174.112C149.548 173.922 149.07 173.823 148.366 173.823H145.93C145.235 173.823 144.766 173.922 144.522 174.112C144.278 174.328 144.152 174.644 144.152 175.077Z" fill="#023D86"/>
<path d="M160.513 180.131C161 180.131 161.379 180.086 161.65 180.013C161.921 179.932 162.119 179.806 162.245 179.607C162.363 179.418 162.435 179.147 162.435 178.795V177.505C162.291 177.676 162.119 177.83 161.948 177.956C161.776 178.082 161.524 178.182 161.19 178.272C160.856 178.353 160.432 178.398 159.89 178.398H158.067C157.156 178.398 156.407 178.317 155.82 178.145C155.234 177.974 154.792 177.694 154.494 177.279C154.187 176.864 154.043 176.296 154.043 175.574C154.043 174.834 154.097 174.238 154.196 173.787C154.304 173.336 154.494 172.975 154.755 172.713C155.017 172.451 155.378 172.271 155.847 172.162C156.317 172.054 156.93 172 157.697 172H161.145C161.948 172 162.615 172.099 163.166 172.298C163.707 172.487 164.123 172.785 164.393 173.191C164.664 173.597 164.808 174.112 164.808 174.734V179.129C164.808 180.14 164.529 180.88 163.978 181.331C163.428 181.791 162.48 182.017 161.154 182.017H157.706C156.849 182.017 156.172 181.918 155.649 181.719C155.125 181.511 154.746 181.205 154.503 180.79C154.259 180.383 154.133 179.86 154.133 179.21H156.353C156.353 179.499 156.416 179.707 156.542 179.842C156.669 179.977 156.84 180.059 157.066 180.095C157.291 180.131 157.625 180.158 158.076 180.158H160.513V180.131ZM156.398 175.077C156.398 175.592 156.515 175.971 156.75 176.187C156.984 176.413 157.463 176.512 158.176 176.512H160.666C161.126 176.512 161.487 176.458 161.758 176.35C162.02 176.241 162.191 176.079 162.3 175.88C162.399 175.673 162.444 175.402 162.444 175.077C162.435 174.635 162.309 174.31 162.056 174.112C161.803 173.922 161.325 173.823 160.621 173.823H158.176C157.481 173.823 157.02 173.922 156.768 174.112C156.524 174.328 156.398 174.644 156.398 175.077Z" fill="#023D86"/>
<path d="M177 175.348C177 176.016 176.856 176.575 176.558 177.017C176.269 177.46 175.863 177.794 175.331 178.028C174.798 178.254 174.184 178.398 173.463 178.434L170.394 178.624C169.925 178.642 169.564 178.696 169.329 178.759C169.086 178.822 168.923 178.922 168.824 179.048C168.734 179.174 168.689 179.337 168.689 179.553V180.086H176.991V181.945H166.243V179.671C166.243 179.228 166.288 178.858 166.379 178.543C166.46 178.227 166.631 177.929 166.884 177.676C167.137 177.424 167.507 177.207 167.994 177.035C168.49 176.864 169.122 176.738 169.907 176.665L173.038 176.503C173.661 176.458 174.076 176.35 174.293 176.16C174.509 175.971 174.627 175.637 174.627 175.167C174.627 174.852 174.572 174.608 174.473 174.446C174.365 174.274 174.175 174.148 173.896 174.076C173.625 174.003 173.219 173.967 172.695 173.967H171.062C170.304 173.967 169.772 174.021 169.447 174.112C169.122 174.211 168.914 174.364 168.833 174.599C168.752 174.825 168.698 175.195 168.698 175.727H166.324C166.324 174.942 166.406 174.283 166.568 173.778C166.73 173.272 167.073 172.857 167.588 172.559C168.102 172.262 168.869 172.108 169.871 172.108H173.426C174.148 172.108 174.735 172.162 175.186 172.262C175.637 172.37 175.998 172.55 176.26 172.785C176.531 173.029 176.72 173.354 176.829 173.769C176.937 174.166 177 174.698 177 175.348Z" fill="#023D86"/>
</svg>
